<?xml version="1.0" encoding="UTF-8" standalone="no"?>
<!-- Created with Inkscape (http://www.inkscape.org/) -->

<svg
   xmlns:dc="http://purl.org/dc/elements/1.1/"
   xmlns:cc="http://creativecommons.org/ns#"
   xmlns:rdf="http://www.w3.org/1999/02/22-rdf-syntax-ns#"
   xmlns:svg="http://www.w3.org/2000/svg"
   xmlns="http://www.w3.org/2000/svg"
   xmlns:sodipodi="http://sodipodi.sourceforge.net/DTD/sodipodi-0.dtd"
   xmlns:inkscape="http://www.inkscape.org/namespaces/inkscape"
   version="1.1"
   id="svg815"
   xml:space="preserve"
   width="160"
   height="160"
   viewBox="0 0 160 160"
   sodipodi:docname="favicon.svg"
   inkscape:version="0.92.4 (5da689c313, 2019-01-14)"><metadata
     id="metadata821"><rdf:RDF><cc:Work
         rdf:about=""><dc:format>image/svg+xml</dc:format><dc:type
           rdf:resource="http://purl.org/dc/dcmitype/StillImage" /><dc:title /></cc:Work></rdf:RDF></metadata><defs
     id="defs819" /><sodipodi:namedview
     pagecolor="#ffffff"
     bordercolor="#666666"
     borderopacity="1"
     objecttolerance="10"
     gridtolerance="10"
     guidetolerance="10"
     inkscape:pageopacity="0"
     inkscape:pageshadow="2"
     inkscape:window-width="3840"
     inkscape:window-height="2051"
     id="namedview817"
     showgrid="false"
     inkscape:zoom="3.5493102"
     inkscape:cx="184.40203"
     inkscape:cy="163.69307"
     inkscape:window-x="0"
     inkscape:window-y="0"
     inkscape:window-maximized="1"
     inkscape:current-layer="g825"
     inkscape:snap-bbox="true"
     inkscape:snap-page="true" /><g
     id="g823"
     inkscape:groupmode="layer"
     inkscape:label="ink_ext_XXXXXX"
     transform="matrix(1.3333333,0,0,-1.3333333,0,160.00001)"><g
       id="g825"
       transform="scale(0.1)"><rect
         style="fill:#ffffff;fill-opacity:0.99350652;stroke:none;stroke-width:60;stroke-linecap:square;stroke-linejoin:bevel;stroke-miterlimit:4;stroke-dasharray:none;stroke-opacity:1;paint-order:normal"
         id="rect1377"
         width="1200"
         height="1200"
         x="0"
         y="-1200.0001"
         transform="scale(1,-1)" /><path
         d="m 596.86003,279.68009 c -88.15,0 -152.32,65.48 -152.32,163.72 0,96.99 64.17,163.65 152.32,163.65 81.83998,0 154.89998,-66.66 154.89998,-163.65 0,-98.24 -73.06,-163.72 -154.89998,-163.72 m 356.32997,287.6 V 1091.5101 H 751.76001 V 709.05009 c -49.11,44.15 -114.64998,69.27 -196.44998,69.27 -167.47,0 -308.5,-135.98 -308.5,-334.92 0,-200.16 141.03,-334.91 308.5,-334.91 81.8,0 147.33998,25.19 196.44998,69.24 v -50.34 H 953.19 v 286.16"
         style="fill:#070200;fill-opacity:1;fill-rule:nonzero;stroke:none"
         id="path833"
         inkscape:connector-curvature="0"
         sodipodi:nodetypes="cssscccccssscccc" /></g></g></svg>