<?xml version="1.0" encoding="UTF-8" standalone="no"?>
<!-- Created with Inkscape (http://www.inkscape.org/) -->

<svg
   xmlns:dc="http://purl.org/dc/elements/1.1/"
   xmlns:cc="http://creativecommons.org/ns#"
   xmlns:rdf="http://www.w3.org/1999/02/22-rdf-syntax-ns#"
   xmlns:svg="http://www.w3.org/2000/svg"
   xmlns="http://www.w3.org/2000/svg"
   xmlns:sodipodi="http://sodipodi.sourceforge.net/DTD/sodipodi-0.dtd"
   xmlns:inkscape="http://www.inkscape.org/namespaces/inkscape"
   version="1.1"
   id="svg858"
   xml:space="preserve"
   width="427.73947"
   height="258.96545"
   viewBox="0 0 427.73947 258.96545"
   sodipodi:docname="logo.svg"
   inkscape:version="0.92.4 (5da689c313, 2019-01-14)"><metadata
     id="metadata864"><rdf:RDF><cc:Work
         rdf:about=""><dc:format>image/svg+xml</dc:format><dc:type
           rdf:resource="http://purl.org/dc/dcmitype/StillImage" /><dc:title></dc:title></cc:Work></rdf:RDF></metadata><defs
     id="defs862" /><sodipodi:namedview
     pagecolor="#ffffff"
     bordercolor="#666666"
     borderopacity="1"
     objecttolerance="10"
     gridtolerance="10"
     guidetolerance="10"
     inkscape:pageopacity="0"
     inkscape:pageshadow="2"
     inkscape:window-width="3840"
     inkscape:window-height="2051"
     id="namedview860"
     showgrid="false"
     inkscape:zoom="0.46252745"
     inkscape:cx="-49.532885"
     inkscape:cy="117.62535"
     inkscape:window-x="0"
     inkscape:window-y="0"
     inkscape:window-maximized="1"
     inkscape:current-layer="g866"
     fit-margin-top="0"
     fit-margin-left="0"
     fit-margin-right="0"
     fit-margin-bottom="0" /><g
     id="g866"
     inkscape:groupmode="layer"
     inkscape:label="ink_ext_XXXXXX"
     transform="matrix(1.3333333,0,0,-1.3333333,-37.641699,396.46012)"><g
       id="g868"
       transform="scale(0.1)"><path
         d="m 1554.01,1202.44 c -81.86,0 -156.1,64.26 -156.1,163.71 0,98.18 74.24,163.62 156.1,163.62 78.05,0 152.33,-65.44 152.33,-163.62 0,-99.45 -74.28,-163.71 -152.33,-163.71 m 881.75,186.33 c 0,-122.07 -51.56,-176.23 -130.9,-176.23 -64.2,0 -108.3,50.33 -108.3,124.61 v 357.99 h -591.07 c -16.84,2.25 -34.03,3.41 -51.48,3.41 -17.8,0 -35.32,-1.16 -52.46,-3.41 h -8.87 v -1.36 c -162.81,-25.25 -288.71,-150.42 -288.71,-327.63 0,-8.33 0.38,-16.5 0.91,-24.6 -6.6,-54.65 -36.63,-85.88 -70.27,-105.65 l -0.15,0.5 c -26.48,-15.02 -64.23,-25.15 -91.91,-25.15 -52.89,0 -84.37,26.46 -84.37,91.89 v 219.1 h 186.37 v 159.93 H 958.18 v 211.52 H 756.699 v -211.52 h -86.801 v -159.93 h 86.801 v -239.22 c 0,-166.21 94.481,-251.81 251.851,-251.81 68.38,0 118.42,18.37 165.47,42.94 l 0.88,-2 c 43.63,18.99 81.52,43.01 112.85,71.67 64.52,-70.45 160.33,-111.4 266.26,-111.4 187.57,0 346.25,133.55 346.25,333.73 0,62.98 -15.94,119.37 -43.64,167.07 h 139.77 v -238.89 c 0,-158.62 98.2,-263.12 245.48,-263.12 79.31,0 146.11,28.94 193.89,79.31 v -60.42 h 201.46 v 632.07 h -201.46"
         style="fill:#070200;fill-opacity:1;fill-rule:nonzero;stroke:none"
         id="path870"
         inkscape:connector-curvature="0" /><path
         d="m 3160.89,1691.01 c -103.25,0 -172.51,-54.15 -217.83,-129.76 v 120.92 H 2741.59 V 1050.1 h 201.47 v 197.66 c 0,163.69 76.8,236.7 217.83,236.7 h 36.5 l 8.81,201.48 c -15.13,3.81 -27.65,5.07 -45.31,5.07"
         style="fill:#070200;fill-opacity:1;fill-rule:nonzero;stroke:none"
         id="path872"
         inkscape:connector-curvature="0" /><path
         d="m 2347.43,2838.63 h -211.74 l -137.71,-240.65 h 159.16 z"
         style="fill:#070200;fill-opacity:1;fill-rule:nonzero;stroke:none"
         id="path874"
         inkscape:connector-curvature="0" /><path
         d="m 2000.16,2253.84 c 19.24,65.46 78.36,101.47 136.21,101.47 59.12,0 110.47,-32.13 129.71,-101.47 z m -620.8,-227.68 c -88.15,0 -152.32,65.48 -152.32,163.72 0,96.99 64.17,163.65 152.32,163.65 81.84,0 154.9,-66.66 154.9,-163.65 0,-98.24 -73.06,-163.72 -154.9,-163.72 m 1085.53,204.81 c -24.44,180.83 -161.18,291.39 -328.52,291.39 -151.9,0 -281.87,-91.05 -325.82,-233.49 -30.1,8.13 -54.86,16.74 -74.86,24.89 v 524.23 h -201.43 v -382.46 c -49.11,44.15 -114.65,69.27 -196.45,69.27 -167.47,0 -308.5,-135.98 -308.5,-334.92 0,-200.16 141.03,-334.91 308.5,-334.91 81.8,0 147.34,25.19 196.45,69.24 v -50.34 h 201.43 v 286.16 c 20.74,-6.18 41.56,-11.1 60.55,-14.97 16.69,-183.86 162.54,-305.36 336.99,-306.21 v -0.22 c 0,0 33.43,0.47 51.01,4.87 l -1.23,161.53 c 0,0 -25.87,-2.17 -47.95,-1.84 v 0.05 c -69.35,0 -122.05,47.49 -138.75,124.63 h 394.92"
         style="fill:#070200;fill-opacity:1;fill-rule:nonzero;stroke:none"
         id="path876"
         inkscape:connector-curvature="0" /><path
         d="m 2621.1,1952.5 c 44.01,-6.8 68.68,-34.93 42.2,-75.05 -32.75,-49.59 -51.64,0.28 -52.08,36.91 -0.17,13.41 1.24,26.35 3.97,38.84 1.96,-0.27 3.96,-0.4 5.91,-0.7 m 808.37,-618.41 c -50.94,-6.38 -101.89,-12.75 -152.82,-19.11 143.27,128.25 234.53,311.04 209.62,507.23 -24,189.04 -160.53,336.06 -340.23,390.93 -187.56,57.27 -435.99,-5.66 -544.02,-177.39 -6.41,-10.2 -12.49,-22.02 -17.83,-34.82 -31.99,-0.2 -64.4,-5.23 -93.71,-9.93 -84.13,-13.52 -162.54,-63.86 -212.48,-132.89 -17.05,-23.56 22.02,-45.98 38.85,-22.7 56.72,78.38 156.48,120.2 253.06,120.66 -9.87,-43.91 -8.31,-90.91 17.47,-123.11 24.2,-30.21 63.7,-25.6 91.59,-3.48 52.78,41.88 56.92,122.7 -7.88,154.5 -12.71,6.25 -26.25,10.4 -40.22,13.07 32.36,64.47 99.44,113.41 161.38,143.95 206.41,101.75 473.74,35.07 594.25,-163.14 114.68,-188.63 51.06,-425.32 -89,-580.45 -17.21,-19.05 -35.95,-36.61 -55.39,-53.36 18.93,42.06 37.86,84.11 56.78,126.18 11.81,26.23 -26.96,49.13 -38.84,22.7 -30,-66.66 -60,-133.32 -90,-200 -6.07,-13.45 0.6,-36.2 19.42,-33.84 l 240,30 c 28.4,3.55 28.75,48.59 0,45"
         style="fill:#070200;fill-opacity:1;fill-rule:nonzero;stroke:none"
         id="path878"
         inkscape:connector-curvature="0" /><path
         d="m 731.859,2517.22 c 37.743,52.73 68.481,70.25 87.789,76.41 7.012,1.73 13.122,2.66 18.524,2.66 7.828,0 13.976,-1.78 16.578,-3.46 2.68,-1.79 7.109,-10.59 4.449,-22.88 -6.109,-31.43 -50.461,-70.61 -153.48,-96.11 -0.278,0.46 -0.641,0.87 -0.918,1.32 7.621,13.45 16.097,26.98 27.058,42.06 m -49.32,363.54 c 11.449,15.82 20.18,23.75 25.481,27.3 0.839,-3.55 1.75,-10.54 1.75,-20.2 0,-13.26 -2.661,-35.99 -14.059,-69.43 -26.289,-78.94 -84.281,-181.74 -165.941,-238.85 43.902,111.55 105.371,234.48 152.769,301.18 m 284.641,-392.5 c -15.789,6.99 -34.231,-0.88 -41.282,-16.7 -39.476,-93.07 -125.558,-127.36 -173.859,-127.36 -23.699,0 -54.437,10.64 -65.859,32.53 -3.801,6.83 -5.532,15.04 -5.352,23.9 1.082,1.61 2.152,3.22 3.184,4.8 185.258,35.43 227.886,109.39 236.597,151.3 3.582,17.6 2.731,35.1 -3.5,50.14 -5.257,15.76 -14.918,28.92 -28.078,37.69 -7.883,5.26 -39.453,22.84 -86.961,8.75 -42.121,-13.07 -82.48,-46.44 -121.129,-100.06 -30.722,-42.16 -50.082,-81.69 -57.953,-115.91 -1.937,-8.46 -3.238,-16.63 -3.91,-24.54 -7.93,-11.15 -17.59,-21.54 -30.5,-30.81 -23.726,-17.54 -49.117,-22.78 -63.168,-22.78 h -0.93 c -14.082,0 -28.109,0.88 -35.14,11.41 -6.129,8.77 -17.539,37.71 9.629,122.91 1.742,0 4.402,0.9 6.191,1.72 62.34,26.4 117.68,73.83 166.86,141.44 49.191,68.5 74.64,136.1 82.57,162.43 13.109,36.89 18.359,71.99 17.519,100.14 -1.718,42.95 -20.16,61.47 -36.031,68.47 -9.598,5.24 -31.558,11.43 -58.84,-4.36 -14.886,-9.67 -30.738,-25.47 -45.668,-47.42 -30.691,-43.04 -68.461,-109.83 -104.441,-187.05 -31.777,-65.99 -59.918,-134.73 -79.957,-192.79 -45.481,-20.6 -92.883,-35.88 -143.113,-44.17 -38.11,-6.29 -21.887,-64.1 15.953,-57.85 36.519,6.02 71.816,15.85 106.097,28.48 -12.05,-57.81 -8.007,-100.39 12.289,-128.81 26.332,-36.03 68.524,-36.97 86.082,-36.97 h 0.93 c 42.84,0 78.961,20.65 107.668,47.08 25.621,-45.29 79.672,-61.95 118.961,-61.95 39.531,0 85.199,14.01 123.82,38.6 48.332,29.88 85.161,73.83 107.993,127.37 6.148,15.81 -0.864,34.23 -16.672,40.37"
         style="fill:#070200;fill-opacity:1;fill-rule:nonzero;stroke:none"
         id="path880"
         inkscape:connector-curvature="0" /></g></g></svg>